<?xml version="1.0" encoding="utf-8"?>
<!-- Generator: Adobe Illustrator 24.1.1, SVG Export Plug-In . SVG Version: 6.00 Build 0)  -->
<svg version="1.1" id="Layer_1" xmlns="http://www.w3.org/2000/svg" xmlns:xlink="http://www.w3.org/1999/xlink" x="0px" y="0px"
	 viewBox="0 0 520 188" style="enable-background:new 0 0 520 188;" xml:space="preserve">
<style type="text/css">
	.st0{fill:#9A9BAA;}
	.st1{fill:#FFFFFF;stroke:#000000;stroke-width:6;stroke-miterlimit:10;}
</style>
<g>
	<g>
		<path class="st0" d="M51.5,170.5c-6.62,0-12-5.38-12-12V47.74c0-19.43,15.81-35.24,35.24-35.24h369.14
			c18.54,0,33.63,15.08,33.63,33.63V153.3c0,9.49-7.72,17.2-17.2,17.2H51.5z"/>
		<path d="M443.88,13C462.14,13,477,27.86,477,46.13V153.3c0,9.21-7.49,16.7-16.7,16.7H51.5c-6.34,0-11.5-5.16-11.5-11.5V47.74
			C40,28.58,55.58,13,74.74,13H443.88 M443.88,12H74.74C55,12,39,28,39,47.74V158.5c0,6.9,5.6,12.5,12.5,12.5h408.8
			c9.78,0,17.7-7.93,17.7-17.7V46.13C478,27.28,462.72,12,443.88,12L443.88,12z"/>
	</g>
	<path class="st1" d="M79.5,148.5"/>
	<g>
		<path d="M174.71,68.26c0-1.31,1.06-2.39,2.44-2.5c6.01-0.46,12.92-0.78,20.41-0.78c15.44,0,26.43,2.02,33.71,5.84
			c7.41,3.83,11.73,9.25,11.73,16.83c0,7.65,0.82,7.33-10.82,31.33c-4.07,8.38-21.78-6.36-37.95-6.36c-6.52,0-12.14-0.15-17.02-0.41
			c-1.4-0.07-2.49-1.17-2.49-2.5V68.26z M185.45,105.11c0,1.33,1.09,2.43,2.49,2.5c2.41,0.13,5.33,0.16,8.38,0.16
			c22.97,0,35.44-7.23,35.44-19.9c0.12-11.06-10.99-18.09-33.71-18.09c-4.16,0-7.56,0.16-10.19,0.38c-1.37,0.12-2.4,1.2-2.4,2.5
			V105.11z"/>
		<path d="M297.39,90.24h-27.05c-1.46,0-2.65,1.12-2.65,2.5v11.9c0,1.38,1.19,2.5,2.65,2.5h30.76c1.46,0,2.65,1.12,2.65,2.5v0.07
			c0,1.38-1.19,2.5-2.65,2.5h-41.5c-1.46,0-2.65-1.12-2.65-2.5V67.84c0-1.38,1.19-2.5,2.65-2.5h39.65c1.46,0,2.65,1.12,2.65,2.5
			v0.07c0,1.38-1.19,2.5-2.65,2.5h-28.9c-1.46,0-2.65,1.12-2.65,2.5v9.81c0,1.38,1.19,2.5,2.65,2.5h27.05c1.46,0,2.65,1.12,2.65,2.5
			l0,0C300.04,89.12,298.85,90.24,297.39,90.24z"/>
		<path d="M320.35,65.34h5.44c1.46,0,2.65,1.12,2.65,2.5v36.8c0,1.38,1.19,2.5,2.65,2.5h30.26c1.46,0,2.65,1.12,2.65,2.5v0.07
			c0,1.38-1.19,2.5-2.65,2.5h-38.92c-2.61,0-4.73-2-4.73-4.47V67.84C317.69,66.46,318.88,65.34,320.35,65.34z"/>
	</g>
</g>
</svg>
