<?xml version="1.0" encoding="utf-8"?>
<!-- Generator: Adobe Illustrator 24.1.1, SVG Export Plug-In . SVG Version: 6.00 Build 0)  -->
<svg version="1.1" id="Layer_1" xmlns="http://www.w3.org/2000/svg" xmlns:xlink="http://www.w3.org/1999/xlink" x="0px" y="0px"
	 viewBox="0 0 1091 218" style="enable-background:new 0 0 1091 218;" xml:space="preserve">
<style type="text/css">
	.st0{stroke:#231F20;stroke-linecap:round;stroke-miterlimit:10;}
</style>
<g>
	<line class="st0" x1="49.1" y1="170.51" x2="1049.48" y2="170.51"/>
	<g>
		<g>
			<path d="M873.84,156.88c7.66,0,7.67-11.91,0-11.91C866.18,144.97,866.16,156.88,873.84,156.88L873.84,156.88z"/>
		</g>
	</g>
	<g>
		<g>
			<path d="M875.75,90.99c7.66,0,7.67-11.91,0-11.91C868.09,79.08,868.08,90.99,875.75,90.99L875.75,90.99z"/>
		</g>
	</g>
	<g>
		<g>
			<path d="M912.08,121.46c7.66,0,7.67-11.91,0-11.91C904.42,109.56,904.41,121.46,912.08,121.46L912.08,121.46z"/>
		</g>
	</g>
	<g>
		<g>
			<path d="M840.5,122.84c7.66,0,7.67-11.91,0-11.91C832.84,110.93,832.82,122.84,840.5,122.84L840.5,122.84z"/>
		</g>
	</g>
	<g>
		<g>
			<path d="M1004.86,122.67c7.66,0,7.67-11.91,0-11.91C997.2,110.77,997.19,122.67,1004.86,122.67L1004.86,122.67z"/>
		</g>
	</g>
	<g>
		<g>
			<path d="M939.5,122.9c7.66,0,7.67-11.91,0-11.91C931.84,110.99,931.83,122.9,939.5,122.9L939.5,122.9z"/>
		</g>
	</g>
	<g>
		<path d="M221.42,78.08l-0.89,1.34c-1.15,0.77-2.76,1.54-4.84,2.32c-2.46,0.94-4.12,1.63-4.97,2.07l-6.05,0.49l-3.31-1.34h-7.9
			c-0.64-0.16-1.57-0.32-2.8-0.49c-1.44,0.04-3.61,0.04-6.5,0c-0.42-0.04-1.17-0.19-2.23-0.46c-1.06-0.26-1.85-0.4-2.36-0.4
			c-4.97,0-7.92,0.45-8.85,1.34l-0.51,0.85l-2.8,0.49l-1.78,2.19l-1.91,0.85c-0.09,0.77-0.44,1.75-1.05,2.93
			c-0.62,1.18-0.99,2.09-1.11,2.74l0.25,1.46l-1.27,0.85l-0.76,2.44l-2.17,1.83l0.51,0.98l-0.51,1.34l-1.4,0.85l-0.38,0.85
			l0.25,1.46l-1.15,1.1l-0.38,2.19l0.38,0.85l-0.38,1.34l0.38,0.49v1.34l1.02,0.85l0.25,2.99l-1.53,2.56l1.15,2.93l-0.89,0.85
			l0.89,0.49l-0.51,0.49v3.05c0.81,0.85,1.51,1.99,2.1,3.41c0.81,1.99,1.34,3.21,1.59,3.66l1.91,1.34l2.29,3.78
			c2.42,2.19,4.75,3.68,7,4.45l2.04,3.17l3.95,1.1l1.97,1.34c0.51,0.04,1.74,0.14,3.69,0.3c1.53,0.12,2.76,0.18,3.69,0.18
			c0.98-0.2,1.61-0.37,1.91-0.49l0.89-1.34l2.55-0.61c1.36-1.14,3.48-2.76,6.37-4.88l1.53-2.5l0.25-2.92
			c0.51-0.65,1.19-1.71,2.04-3.17l-0.64-1.46l1.78-2.19l-0.38-1.83c-2.04-0.98-4.08-1.58-6.11-1.83l-2.29,0.98l-1.53,2.68
			l-2.67,0.85l-2.29-3.53l-2.8-0.98l-0.38-1.71l0.38-2.19l1.91-0.98c2.04-0.24,3.1-0.37,3.18-0.37c-0.64,0,2.17,0.28,8.41,0.85
			l0.89,1.34l5.6,1.34c1.57,1.54,2.7,3.78,3.38,6.7c-0.93,5-1.78,8.13-2.55,9.38c-0.55,0.89-2.19,2.32-4.9,4.27
			c-2.38,1.71-3.91,3.64-4.58,5.79c-1.44,0.94-2.89,2.15-4.33,3.66l-5.09,0.85l-1.91-0.37l-0.89,0.85l-0.89-0.85l-4.78-0.49
			l-0.89-0.85h-1.4l-0.51-0.98c-0.76-0.32-2.51-0.69-5.22-1.1c-2.38-0.37-4.46-1.1-6.24-2.19l-1.53-1.71
			c-1.15-0.53-3.01-1.18-5.6-1.95l-1.27-1.46h-1.4l-1.91-1.71l-1.46-0.49v-0.49l-2.29-1.4l-2.29-3.53V135
			c0-0.24,0.13-0.98,0.38-2.19l-0.76-1.34c0.21-0.85-0.09-2.19-0.89-4.02l-0.51-0.37l0.89-1.34v-0.85l-1.91-2.32l-0.51-2.19
			l0.51-1.34l-1.15-0.85v-0.85c0.38-1.46,0.68-2.38,0.89-2.74l0.89-0.97l-1.4-1.34c0.59-1.06,0.89-3.45,0.89-7.19
			c1.15-1.83,2.5-4.75,4.08-8.78l1.4-0.85c0.59-1.83,1.68-3.41,3.25-4.75c5.01-4.27,8.11-6.68,9.3-7.25l5.6-2.68l0.38-0.98
			l-0.38-0.37c-0.93-0.41-2.14-0.57-3.63-0.49c-3.35,0.16-4.61,0.24-3.76,0.24c-0.85,0-2.12-0.08-3.82-0.24l-0.38,0.49
			c-1.74-0.89-4.1-1.34-7.07-1.34c-1.27,0.53-3.74,1.26-7.39,2.19l-1.91,1.34h-3.18c-0.98-0.2-1.61-0.37-1.91-0.49l-1.91,1.34
			c0.98,1.14,2.25,2.19,3.82,3.17l1.78,2.68c0.38,2.97,0.55,4.9,0.51,5.79l-0.89,1.34l-1.91,0.49l-1.91-0.98l0.51-2.68l-1.91-2.19
			h-2.29l-1.78,0.98l-1.91-0.49l-2.36-1.89v-0.37l-1.4-0.49l-1.4-1.83l1.4-3.53c0.64-0.69,1.89-1.35,3.76-1.98
			c1.87-0.63,3.27-0.86,4.2-0.7l0.51-1.34l1.27,0.49c3.06-0.81,4.92-1.54,5.6-2.19c9.38-1.38,15.43-2.07,18.15-2.07
			c4.29,0,7.85,0.41,10.7,1.22l2.29-0.49l3.82,1.34h1.78l0.89,0.49h1.91l4.27-2.32v-0.37c1.83-0.61,4.46-1.38,7.9-2.32
			c1.87-0.12,4.63-0.41,8.28-0.85l1.02-0.85h1.78c0.13,0,0.66,0.13,1.59,0.4c0.93,0.26,1.51,0.42,1.72,0.46
			c0.76-0.04,1.85-0.04,3.25,0c1.06,0.33,2.63,0.77,4.71,1.34h1.4l2.29,0.85c1.91-0.16,3.44,0,4.58,0.49
			C220.36,74.87,221,76.21,221.42,78.08z M217.22,77.22l-0.89-1.34l-2.8-0.98c-5.77,0.65-8.11,0.98-7,0.98
			c-1.4,0-3.42-0.22-6.05-0.67c-2.63-0.45-4.63-0.67-5.99-0.67c-0.09,0-1.42,0.26-4.01,0.79c-2.72,0.57-4.18,0.87-4.39,0.91
			l-0.51,0.98l1.4,1.1c1.36,0.57,3.38,0.85,6.05,0.85c2.12,0,4.24,0,6.37,0c2.42,0.16,4.33,0.69,5.73,1.58
			c1.66-0.24,3.84-0.73,6.56-1.46C214.78,78.48,216.62,77.79,217.22,77.22z"/>
		<path d="M262.18,120.98l-0.51,0.85l-0.89,0.49v0.49l-3.68,0.37l-0.51,0.98v1.22l-0.38,0.49v1.34h-0.51v0.49l-0.77,0.85l-0.26,1.1
			l-1.02,0.73l0.38,0.85c-0.38,0.65-0.92,2.11-1.6,4.39l-1.92,2.19h0.51v0.49c-1.41,0.89-2.51,1.81-3.32,2.74l-0.26,0.73l0.25,0.61
			l-0.51,4.02h-0.38v0.85l-0.88,1.34l0.38,0.85l1.4,0.37c1.1-1.18,2.82-2.19,5.16-3.05l0.76,1.34l-1.21,2.32
			c-1.87,1.14-3.44,2.6-4.71,4.39c-2.55,0.69-4.25,0.98-5.09,0.85v-0.37h-1.4c-0.81-0.94-1.74-1.71-2.8-2.32
			c0.08-0.93-0.04-2.23-0.38-3.9l-1.02-0.98h-0.38c-1.95,1.58-3.06,2.76-3.31,3.53l-2.29,0.49l-0.89,1.34l-2.67,0.98l-1.59-0.49
			l-1.53,0.24c-1.57-0.93-2.93-1.46-4.08-1.58l-1.78-1.34c-1.27-2.76-1.91-4.75-1.91-5.97c0-0.65,0.17-1.46,0.51-2.44h0.38
			c0.21-0.57,0.51-1.6,0.89-3.11l-0.38-0.98v-0.49c0-0.41,0.26-1,0.8-1.77c0.53-0.77,0.82-1.36,0.86-1.77
			c2.55-1.71,4.08-4.22,4.58-7.56c0.89-0.57,1.59-1.18,2.1-1.83c1.53-0.49,2.63-0.89,3.31-1.22h0.51c0.93-1.06,1.99-1.95,3.18-2.68
			l0.51-0.98l4.2-1.34l3.69,0.49l1.4,0.85h1.78l1.91-1.71h1.78l2.42,0.85l1.85-0.49l1.02,0.49l0.38,0.85l3.31-0.37l1.4-0.98
			l0.89,0.49l1.4-0.49C261.67,119.52,261.96,120.13,262.18,120.98z M247.72,122.81l-2.8-0.98c-1.7,0.45-3.23,0.61-4.58,0.49
			l-3.31,1.34l-1.78,1.71c-0.13,0.65-0.88,2.6-2.26,5.85c-1.38,3.25-2.2,4.96-2.45,5.12l-0.25,1.34l-1.27,1.1l-0.25,0.85l0.25,0.85
			l-1.4,1.89v1.58l-0.76,0.73v1.22l-0.51,0.85v0.49l-1.34,0.49v1.71l0.38,0.49l1.97,0.85c1.02-0.32,2.55-1.22,4.58-2.68h0.51
			l1.4-0.85c0.47-0.65,1.23-1.54,2.29-2.68v-0.37l0.89-0.49c0.93-1.62,2.33-4,4.2-7.13v-0.49l1.4-1.34c0.13-1.34,0.68-2.8,1.66-4.39
			c-0.09-0.28,0.04-1.06,0.38-2.32l1.02-0.37v-0.49l-0.25-0.49c0.25-0.57,0.72-1.42,1.4-2.56h0.38L247.72,122.81z"/>
		<path d="M310.96,86.61l-0.89,0.49h-2.79c-0.89-0.24-1.31-0.37-1.27-0.37c-0.93,0-2.12,0.33-3.55,0.98
			c-1.65,0.69-2.85,1.1-3.62,1.22c-0.63,1.14-1.57,2.38-2.79,3.72c0,0.33,0.02,0.81,0.06,1.46c0.04,0.65,0.06,1.14,0.06,1.46
			c-0.55,1.34-1.36,2.52-2.42,3.53l-0.38,4.88l-1.15,1.34v3.17c-1.23,1.02-2.04,2.07-2.42,3.17l0.13,1.83
			c-0.72,1.58-0.98,2.74-0.76,3.47c-0.93,1.18-1.61,2.23-2.04,3.17c-0.09,0.73-0.4,2.3-0.95,4.69c-0.51,2.15-0.74,3.39-0.7,3.72
			c-0.85,0.65-1.53,1.1-2.04,1.34l0.64,1.34l-1.02,0.85c-0.3,0.49-0.64,1.46-1.02,2.93l-1.27,1.46l-0.38,3.66l-1.02,1.77
			c0,2.72-1.06,4.79-3.19,6.22l-1.92,0.49c-1.02,0.94-2.45,2.11-4.28,3.53c-1.79,0.65-3.49,1.1-5.11,1.34
			c-0.94-0.53-2.3-0.69-4.09-0.49l-1.02-0.37l-2.3-2.32v-1.71l1.92-1.34h0.89l0.89,0.85l2.3,0.98c0.85-0.37,1.75-1.02,2.71-1.95
			c0.96-0.93,1.76-1.54,2.39-1.83c0.25-0.69,0.6-1.75,1.02-3.17c0-1.62,0.3-3.92,0.89-6.89H271v-0.98l0.89-1.71v-2.32l1.46-1.71
			c0.81-3.9,2.04-6.58,3.69-8.04c0.08-0.93,0.98-3.92,2.67-8.96c0.08-0.81,0.34-1.99,0.76-3.53c0.89-1.26,2.04-3.21,3.44-5.85
			l-0.38-1.71l0.51-2.19l1.78-0.49l0.51-0.85V95.2l0.89-0.49l1.4-3.17c1.06-1.18,2.67-2.7,4.83-4.57l1.53,0.12l1.14-1.34h0.89
			c0.85-0.85,2.35-1.54,4.52-2.07c2.5-0.57,4.11-1.06,4.83-1.46c1.4,0.33,2.46,0.45,3.18,0.37l1.4,1.83V86.61z"/>
		<path d="M334.58,122.69l-0.13,1.22c-0.59,1.14-1.27,2.07-2.04,2.8l-4.52,0.37c-2.21-1.14-3.82-2.03-4.84-2.68
			c-1.19,0.16-2.17,0.24-2.93,0.24c-0.25,0-0.64-0.06-1.15-0.18c-0.51-0.12-0.89-0.18-1.15-0.18c-0.09,0-1.15,0.12-3.18,0.37
			l-2.42,1.46c-0.13,0.53-0.38,0.98-0.76,1.34c-0.51,1.34-1.44,3.33-2.8,5.97v1.22l-1.4,0.85l0.13,0.98l-0.64,1.1l-1.02,0.49v0.49
			l-1.4,1.71c-0.38,1.54-0.53,2.62-0.45,3.23h0.96c-0.47,1.75-0.64,3.37-0.51,4.88l0.51,0.85c0.3,0.2,1.4,0.65,3.31,1.34
			c1.44-0.08,3.42-0.57,5.92-1.46c2.67-0.93,4.44-1.87,5.29-2.8l0.51-1.58l0.89-1.1l2.04-1.1l1.78,0.24l0.64,1.22l1.02,0.85v1.34
			c-1.74,1.18-2.97,2.19-3.69,3.05c-1.44,0.57-3.01,1.3-4.71,2.19c-1.06,0.16-2,0.49-2.8,0.97h-0.38l-0.51,0.85v0.24h-1.27
			l-1.53,1.1h-2.29c-2.25,0-4.27-0.29-6.05-0.85v-0.98l-1.91-1.34c-0.21-0.81-0.51-1.38-0.89-1.71c-0.81-0.69-2.04-1.22-3.69-1.58
			c-0.38-1.14-1.02-2.19-1.91-3.17c-0.34-1.14-0.51-2.82-0.51-5.06c0-1.1,0.39-2.47,1.18-4.11c0.79-1.65,1.62-2.79,2.52-3.44
			l-0.25-0.49l0.25-0.85h0.51l0.89-1.83v-0.37l1.02-1.34l1.53-0.61c0.25-0.89,0.76-1.71,1.53-2.44l1.85-0.98l0.76-1.83l1.78-0.49
			l0.64-0.98h1.66l2.42-1.22c1.44-0.08,3.57-0.37,6.37-0.85l3.82,0.85l0.89,1.34c1.91,0.33,3.35,0.85,4.33,1.58
			c0.47,0,1.17-0.02,2.1-0.06c0.93-0.04,1.66-0.06,2.17-0.06C332.84,121.71,333.69,122.04,334.58,122.69z"/>
		<path d="M387.82,143.22c-0.47,0.61-1.41,1.28-2.83,2.01c-1.42,0.73-2.22,1.24-2.39,1.52v0.49c-0.55,0.41-1.32,0.98-2.29,1.71
			l-0.89,1.83l-2.29,1.71l-0.51,0.98c-1.49,0.98-3.88,1.34-7.2,1.1c-1.95-0.53-3.69-1.22-5.22-2.07l-0.51-1.95
			c0.13-1.79,0.68-3.86,1.66-6.22c-2.33,0.61-4.05,1.58-5.16,2.93c-1.87,2.19-2.91,3.37-3.12,3.53l0.25,0.37
			c-0.09,0.16-0.21,0.39-0.38,0.67c-0.17,0.28-0.3,0.51-0.38,0.67h-1.78c-1.27,1.06-2.84,1.67-4.71,1.83
			c-3.86-0.12-7.41-1.58-10.63-4.39c-0.38-1.58-0.93-3.66-1.66-6.22c0-2.8,0.68-5.22,2.04-7.25v-0.37c2.59-3.21,3.69-5.89,3.31-8.04
			l-1.02-0.49l-0.38,0.49h-1.02l-0.89,0.85l-1.4,0.49l-2.29-0.49l0.63-3.17l1.65-1.22c1.35-0.32,2.92-0.49,4.7-0.49l1.4-0.85h0.95
			l0.51-0.85l1.78-0.49l0.89-2.19l0.51-0.49l1.9,0.85l2.29-0.85l2.79,0.85c0.17,0.89,0.3,2.23,0.38,4.02l-0.38,0.85l-2.25,0.49
			c-0.3,0.37-0.64,1.1-1.02,2.19h-0.38c-0.42,2.36-1.06,3.86-1.91,4.51v0.37c-0.42,0.37-1.06,1.14-1.91,2.32l-0.38,3.53l-0.51,0.37
			c-0.76,1.18-1.06,2.54-0.89,4.08l0.38,0.49c-0.17,0.61,0.22,1.8,1.18,3.56c0.96,1.77,1.75,2.94,2.39,3.5h1.66
			c0.25-0.16,2.12-1.91,5.6-5.24l1.4-0.49l0.25-0.85c0.68-0.16,1.19-0.49,1.53-0.98l0.89-0.37v-0.49c0.34-0.65,0.81-1.4,1.4-2.25
			c0.93-0.32,1.89-0.87,2.87-1.65c1.44-1.14,2.27-1.77,2.48-1.89c0.21-0.85,0.51-1.46,0.89-1.83h0.51c0.55-1.79,1.59-4.35,3.12-7.68
			c0.42-0.61,1.02-1.58,1.78-2.92c-0.13-0.85,0.04-1.75,0.51-2.68l3.7-1.58l3.19,1.1c0.51,0.89,0.68,1.95,0.51,3.17l-0.5,0.85v1.34
			h-0.38l-1.41,2.68h-0.51c-0.6,0.41-1.07,1.71-1.41,3.9h-0.38c-0.3,1.1-0.77,2.32-1.41,3.66v2.19l-1.41,3.11l-0.51,0.49l-1.41,3.53
			v1.34c0,0.2,0.02,0.53,0.06,0.98c0.04,0.45,0.06,0.77,0.06,0.98c1.61-0.98,2.67-1.79,3.18-2.44l2.8-0.37l0.38-0.49v-0.85
			c0.85-0.77,2.08-1.95,3.69-3.53c1.19-0.45,2-0.63,2.42-0.55l1.4,1.89V143.22z"/>
		<path d="M442.33,86.61l-0.89,0.49h-2.79c-0.89-0.24-1.31-0.37-1.27-0.37c-0.93,0-2.12,0.33-3.55,0.98
			c-1.65,0.69-2.86,1.1-3.62,1.22c-0.63,1.14-1.57,2.38-2.79,3.72c0,0.33,0.02,0.81,0.06,1.46c0.04,0.65,0.06,1.14,0.06,1.46
			c-0.55,1.34-1.36,2.52-2.42,3.53l-0.38,4.88l-1.14,1.34v3.17c-1.23,1.02-2.04,2.07-2.42,3.17l0.13,1.83
			c-0.72,1.58-0.98,2.74-0.76,3.47c-0.93,1.18-1.61,2.23-2.04,3.17c-0.09,0.73-0.4,2.3-0.95,4.69c-0.51,2.15-0.74,3.39-0.7,3.72
			c-0.85,0.65-1.53,1.1-2.04,1.34l0.64,1.34l-1.02,0.85c-0.3,0.49-0.64,1.46-1.02,2.93l-1.27,1.46l-0.38,3.66l-1.02,1.77
			c0,2.72-1.07,4.79-3.19,6.22l-1.92,0.49c-1.02,0.94-2.45,2.11-4.28,3.53c-1.79,0.65-3.49,1.1-5.11,1.34
			c-0.94-0.53-2.3-0.69-4.09-0.49l-1.02-0.37l-2.3-2.32v-1.71l1.92-1.34h0.89l0.89,0.85l2.3,0.98c0.85-0.37,1.75-1.02,2.71-1.95
			c0.96-0.93,1.76-1.54,2.4-1.83c0.25-0.69,0.6-1.75,1.02-3.17c0-1.62,0.3-3.92,0.89-6.89h0.51v-0.98l0.89-1.71v-2.32l1.46-1.71
			c0.81-3.9,2.04-6.58,3.69-8.04c0.08-0.93,0.98-3.92,2.67-8.96c0.08-0.81,0.34-1.99,0.76-3.53c0.89-1.26,2.04-3.21,3.44-5.85
			l-0.38-1.71l0.51-2.19l1.78-0.49l0.51-0.85V95.2l0.89-0.49l1.4-3.17c1.06-1.18,2.67-2.7,4.83-4.57l1.53,0.12l1.14-1.34h0.89
			c0.85-0.85,2.35-1.54,4.51-2.07c2.5-0.57,4.11-1.06,4.83-1.46c1.4,0.33,2.46,0.45,3.18,0.37l1.4,1.83V86.61z"/>
		<path d="M471.56,120.98l-0.51,0.85l-0.89,0.49v0.49l-3.68,0.37l-0.51,0.98v1.22l-0.38,0.49v1.34h-0.51v0.49l-0.77,0.85l-0.26,1.1
			l-1.02,0.73l0.38,0.85c-0.38,0.65-0.92,2.11-1.6,4.39l-1.92,2.19h0.51v0.49c-1.41,0.89-2.51,1.81-3.33,2.74l-0.25,0.73l0.25,0.61
			l-0.51,4.02h-0.38v0.85l-0.88,1.34l0.38,0.85l1.4,0.37c1.1-1.18,2.82-2.19,5.16-3.05l0.76,1.34l-1.21,2.32
			c-1.87,1.14-3.44,2.6-4.71,4.39c-2.55,0.69-4.25,0.98-5.09,0.85v-0.37h-1.4c-0.81-0.94-1.74-1.71-2.8-2.32
			c0.08-0.93-0.04-2.23-0.38-3.9l-1.02-0.98h-0.38c-1.95,1.58-3.06,2.76-3.31,3.53l-2.29,0.49l-0.89,1.34l-2.67,0.98l-1.59-0.49
			l-1.53,0.24c-1.57-0.93-2.93-1.46-4.08-1.58l-1.78-1.34c-1.27-2.76-1.91-4.75-1.91-5.97c0-0.65,0.17-1.46,0.51-2.44h0.38
			c0.21-0.57,0.51-1.6,0.89-3.11l-0.38-0.98v-0.49c0-0.41,0.27-1,0.8-1.77c0.53-0.77,0.82-1.36,0.86-1.77
			c2.55-1.71,4.08-4.22,4.58-7.56c0.89-0.57,1.59-1.18,2.1-1.83c1.53-0.49,2.63-0.89,3.31-1.22h0.51c0.93-1.06,2-1.95,3.18-2.68
			l0.51-0.98l4.2-1.34l3.69,0.49l1.4,0.85h1.78l1.91-1.71h1.78l2.42,0.85l1.85-0.49l1.02,0.49l0.38,0.85l3.31-0.37l1.4-0.98
			l0.89,0.49l1.4-0.49C471.05,119.52,471.34,120.13,471.56,120.98z M457.1,122.81l-2.8-0.98c-1.7,0.45-3.23,0.61-4.58,0.49
			l-3.31,1.34l-1.78,1.71c-0.13,0.65-0.88,2.6-2.26,5.85c-1.38,3.25-2.2,4.96-2.45,5.12l-0.25,1.34l-1.27,1.1l-0.25,0.85l0.25,0.85
			l-1.4,1.89v1.58l-0.76,0.73v1.22l-0.51,0.85v0.49l-1.34,0.49v1.71l0.38,0.49l1.97,0.85c1.02-0.32,2.55-1.22,4.58-2.68h0.51
			l1.4-0.85c0.47-0.65,1.23-1.54,2.29-2.68v-0.37l0.89-0.49c0.93-1.62,2.33-4,4.2-7.13v-0.49l1.4-1.34c0.13-1.34,0.68-2.8,1.66-4.39
			c-0.08-0.28,0.04-1.06,0.38-2.32l1.02-0.37v-0.49l-0.25-0.49c0.25-0.57,0.72-1.42,1.4-2.56h0.38L457.1,122.81z"/>
		<path d="M507.41,117.93l-0.38,2.19l-1.4,0.37c-0.42-0.08-1.51-0.32-3.25-0.73c-1.27-0.32-2.36-0.49-3.25-0.49
			c-0.08,0-0.89,0.12-2.42,0.37l-0.38,0.49h-2.67l-1.4,1.22c-0.21,1.06-0.72,2.28-1.53,3.66c0.13,1.18-0.04,2.52-0.51,4.02
			l-0.89,0.85l0.51,2.32l-0.89,0.37l-0.51,0.85l0.51,0.98l-1.02,1.1l-0.38,1.83l-0.51,0.12l-0.89,1.83v0.37l-1.91,0.98l0.51,1.4
			l-1.02,0.85l-0.38,1.34l-1.46,1.83v0.85l0.38,0.37h1.08v0.98l-0.51,0.37c0.34,0.77,0.59,1.71,0.76,2.8l2.55-0.49l1.02,0.61
			l0.76-0.61l1.02,0.37c0.89-0.32,2.25-0.77,4.08-1.34l1.4-1.34l1.02-2.56v-2.32c0.72-1.75,1.49-3.03,2.29-3.84l-1.02-0.61
			l1.02-0.85v-0.49l1.4-0.85h1.4c0.98,0.24,1.44,0.37,1.4,0.37l1.27,2.68l-0.89,1.4v1.34c-1.02,1.34-2.08,2.23-3.18,2.68v0.49
			l-1.4,1.71c-0.17,1.38-0.72,2.52-1.66,3.41l-1.53,0.98l-1.02,1.34c-1.87,0.98-3.4,1.42-4.58,1.34l-0.51,0.98h-0.89l-0.51-0.49
			c-0.89,0.2-1.53,0.49-1.91,0.85l-2.29,0.49v-0.49c-2-0.33-3.54-0.45-4.65-0.37c-0.34-0.53-1.08-1.12-2.23-1.77
			c-1.27-0.73-2.1-1.32-2.48-1.77v-2.32l-0.38-0.37v-1.83c0.98-2.48,1.44-4.1,1.4-4.88l0.76-0.73c0.51-0.85,0.68-1.97,0.51-3.35
			l1.66-2.07c-0.04-0.37,0.25-1.91,0.89-4.63l1.15-1.22l-0.51-0.98c0.47-1.58,1.15-3.94,2.04-7.07h0.89
			c0.38-0.49,0.7-1.54,0.96-3.17l-0.57-0.49l-2.29,0.49c-0.89,0.69-1.66,1.14-2.29,1.34l-1.4-0.37c-1.74,0.81-3.44,1.1-5.09,0.85
			l0.51-1.83c1.06-0.81,2.29-1.54,3.69-2.19h0.89l0.51-0.85h1.4l1.78-0.85l1.15,0.24c1.66-0.28,3.12-0.67,4.39-1.16l0.64-1.83h0.89
			l1.91-2.19l0.38-1.34c0.85-0.49,1.49-0.81,1.91-0.98l0.38-1.34l1.4,0.49l0.51-0.49v-0.85l1.91-0.85v-0.85l0.89-1.34h0.89
			l0.51,0.37l0.89-0.37v3.05l-0.89,0.49v0.37l-0.51,0.49v1.34l-1.91,2.19c-0.13,1.54-0.68,2.95-1.66,4.21
			c1.66,0.12,3.31,0.37,4.97,0.73c0.76-0.24,1.95-0.37,3.57-0.37c1.74,0,3.18,0.12,4.33,0.37L507.41,117.93z"/>
		<path d="M545.74,134.02l-0.57,3.29h-0.38v0.85l-0.89,0.97v0.37l-1.4,0.98l-1.4,2.25l-1.4,0.85l0.51,0.73
			c-0.51,0.98-1.02,1.71-1.53,2.19l-0.25,1.22c-0.72,0.41-1.66,1.3-2.8,2.68c-1.27,1.46-2.25,2.44-2.93,2.92
			c-1.02-0.12-2.08,0.04-3.18,0.49c-1.1-0.33-2.8-0.49-5.09-0.49c-1.19,0.24-1.95,0.45-2.29,0.61l-2.42-0.61
			c-1.49-1.26-2.78-2.03-3.88-2.32c-0.68-0.57-1.57-1.54-2.67-2.93c-0.17-0.65-0.34-1.79-0.51-3.41c-0.68-0.77-1.44-2.03-2.29-3.78
			c-1.7-1.34-2.55-3.55-2.55-6.64l1.27-3.17c0.85-0.81,2.04-1.58,3.57-2.32c0.42-0.57,0.77-1.14,1.02-1.71l2.3-1.34l2.3-3.05
			l2.36-0.85h1.4l1.91-1.83l2.3-0.49l0.89,0.49c0.38,0.49,0.72,1.54,1.02,3.17h0.89l0.51-0.49l2.28-0.85l0.89-0.97h2.28l1.9,0.97
			l0.89,3.05l2.3,0.85h0.51c0.51,0.73,1.28,1.34,2.3,1.83C543.72,128.9,544.68,131.06,545.74,134.02z M541.92,132.92l-0.88-2.32
			v-0.37l-1.01-0.85l-0.38-0.97l-1.89-0.85l-1.39,0.85c-0.29,0.85-0.76,1.58-1.39,2.19c0.08,0.28-0.04,0.89-0.38,1.83l-1.02,0.49
			v0.37l-1.4,0.98l-2.29-1.34l-0.38-0.49v-3.53l-1.02-2.19v-0.49l-0.89-0.49v-0.37l-0.89-0.49l-1.91,0.49l-0.64,1.1l-2.17,1.1h-0.38
			c-0.21,0.73-1.02,1.63-2.42,2.68v0.85l0.51,0.49v0.85l0.25,0.61l-1.15,2.56v1.71c0.25,0.24,0.55,0.69,0.89,1.34
			c0,0.16-0.02,0.39-0.06,0.67c-0.04,0.28-0.06,0.51-0.06,0.67c0,0.12,0.02,0.33,0.06,0.64c0.04,0.3,0.06,0.52,0.06,0.64
			c0.38,0.57,0.68,1.5,0.89,2.8l1.91,1.34l0.89,1.71l2.29,1.83l3.3,0.49c0.93-0.61,2.37-1.34,4.32-2.19l-0.13-0.98
			c0.76-0.53,1.86-1.3,3.3-2.32l0.38-1.22c0.8-0.65,1.56-1.56,2.29-2.74l1.91-0.85C541.8,137.35,542.09,135.28,541.92,132.92z"/>
		<path d="M589.05,127.68l-0.25,2.93l-1.59,0.37c-0.3-0.16-1.53-0.24-3.7-0.24c-0.76,0-1.74-0.28-2.93-0.85
			c-0.85-1.3-1.53-2.23-2.04-2.8l-1.91-0.73c-1.19,0.85-2.08,1.91-2.68,3.17l-0.25,1.71l-1.4,0.85l-1.4,2.19l0.13,1.58l-0.51,1.58
			l-1.14,0.49l0.13,1.71l-1.4,1.4c-0.17,1.26-0.59,2.28-1.27,3.05l-1.4,0.49l-0.25,1.58l0.25,1.1l-0.51,1.83l-0.89,1.22l-0.38,1.71
			l-1.66,1.95c-1.53,0.32-2.66,0.61-3.38,0.85c-0.89-0.65-2.17-0.98-3.83-0.98c-0.38,0-1.14,0.18-2.26,0.55
			c-1.13,0.37-1.9,0.51-2.33,0.43l-0.64-1.22l0.13-1.46c0.72-0.53,1.74-1.42,3.06-2.68c-0.21-1.46-0.04-2.64,0.51-3.53h0.51
			l0.25-1.1l0.64-0.24l0.38-1.1h0.51l0.89-2.19c0.51-0.61,1.36-1.4,2.55-2.38c0-0.85,0.59-1.99,1.78-3.41v-1.46
			c1.15-2.36,1.59-4.23,1.34-5.61l-0.96-1.71l-1.27-0.37c-0.51,0.08-1.32,0.12-2.42,0.12l-1.4,0.85l-1.4-0.73l-1.4,0.24l-0.51-0.37
			h-1.78v-0.98c0.64-0.85,1.57-1.42,2.8-1.71l1.27,0.12c0.85-0.93,2.12-1.58,3.83-1.95h1.79l0.51-0.37l1.98,0.24
			c0.64,0,1.7-0.57,3.19-1.71c1.23,0.45,2.29,0.94,3.19,1.46c0.76,1.06,1.23,1.91,1.4,2.56v0.49l1.02,2.07h0.38
			c0.68-1.3,1.72-2.68,3.12-4.14c1.65-1.67,3.12-2.64,4.39-2.93l1.4,0.49l0.89,1.22c1.1,0.45,1.95,1.1,2.54,1.95v0.98l1.65,1.58
			l1.78,0.49v0.37L589.05,127.68z"/>
		<path d="M658.58,123.91l-0.38,0.49v2.25l-0.51,0.49l-1.02,2.25l0.38,0.85l-0.51,0.49c-0.13,0.94-0.45,2.23-0.96,3.9l0.25,0.61
			c-0.85,1.1-1.85,2.74-2.99,4.94c-1.19,2.4-1.78,4.08-1.78,5.06l-0.96,1.34l0.25,1.77c1.87-1.3,3.27-2.58,4.2-3.84l1.66-0.67
			l1.97,0.49c-0.17,0.85-0.96,2.07-2.36,3.66c-1.61,1.83-2.65,3.19-3.12,4.08l-0.89,0.55v0.37l-3.12,1.89
			c-1.4-0.12-3.02-0.87-4.84-2.25c-0.21-0.37-0.7-0.83-1.46-1.4l-0.64-1.34v-1.4l-0.51-0.85l0.38-1.04l-0.13-1.34
			c0-1.71,0.9-4.11,2.71-7.22c1.8-3.11,2.64-5.86,2.52-8.26c0.85-1.46,1.46-3.25,1.85-5.36l-1.34-0.49l-0.51,0.49v0.37l-2.87,1.89
			v0.49l-1.85,0.37v0.49c-1.4,0.45-2.36,1.04-2.87,1.77v0.98c-0.55,0.37-1.68,0.67-3.38,0.91v0.85h-0.89l-0.45,0.49h-0.51
			l-0.51,0.85v1.04l-1.4,0.37v0.85l-0.7,1.4l-0.13,2.13c-0.55,0.77-1.06,2.02-1.53,3.75c-0.47,1.73-0.96,2.98-1.46,3.75
			c-0.81,0.49-1.64,1.36-2.48,2.62c-0.98,1.46-1.72,2.42-2.23,2.86c-1.53,0.33-3.86,0.81-7,1.46l-1.59-0.61l-2.23,0.61l-2.42-1.58
			l-1.08-2.38l0.51-2.13l1.46-0.49c1.32,0.61,2.4,1.18,3.25,1.71l2.36-0.37l1.59-0.98l0.38-2.62l0.51-0.37
			c-0.04-1.46,0.13-2.76,0.51-3.9c0.64-1.14,1.55-2.88,2.74-5.24c0.42-1.95,1.38-4.81,2.87-8.59l-0.38-1.4l0.38-0.98l-0.89-0.85
			l-1.46,0.49v0.37l-1.91,0.49l-1.34,0.85c-1.91,0.28-3.52,0.63-4.84,1.04l-2.36-1.04l-0.51-1.34l0.51-0.85
			c4.5,0.08,9.25-1.3,14.26-4.14h1.02l3.12-2.13l1.59-0.24l1.4,0.61c1.87,1.83,2.65,3.33,2.36,4.51l-0.89,0.49v0.91l-0.96,1.34
			c0.08,0.33,0,0.91-0.25,1.77l0.25,0.98l0.96,0.49c1.61-0.53,3.35-1.44,5.22-2.74v-0.49h0.51l1.27-0.85h0.57l1.4-1.04l0.51-0.85
			l1.85-0.37v-0.49c1.27-0.65,2.4-1.12,3.38-1.4l0.38-0.49h1.08c1.27-0.49,2.23-1.08,2.87-1.77h1.4l0.38,0.91h0.57
			c0.72,0.85,1.32,2.05,1.78,3.6V123.91z"/>
		<path d="M712.46,120.98l-0.51,0.85l-0.89,0.49v0.49l-3.68,0.37l-0.51,0.98v1.22l-0.38,0.49v1.34h-0.51v0.49l-0.77,0.85l-0.26,1.1
			l-1.02,0.73l0.38,0.85c-0.38,0.65-0.92,2.11-1.6,4.39l-1.92,2.19h0.51v0.49c-1.41,0.89-2.51,1.81-3.33,2.74l-0.25,0.73l0.25,0.61
			l-0.51,4.02h-0.38v0.85l-0.88,1.34l0.38,0.85l1.4,0.37c1.1-1.18,2.82-2.19,5.16-3.05l0.76,1.34l-1.21,2.32
			c-1.87,1.14-3.44,2.6-4.71,4.39c-2.55,0.69-4.25,0.98-5.09,0.85v-0.37h-1.4c-0.81-0.94-1.74-1.71-2.8-2.32
			c0.08-0.93-0.04-2.23-0.38-3.9l-1.02-0.98h-0.38c-1.95,1.58-3.06,2.76-3.31,3.53l-2.29,0.49l-0.89,1.34l-2.67,0.98l-1.59-0.49
			l-1.53,0.24c-1.57-0.93-2.93-1.46-4.08-1.58l-1.78-1.34c-1.27-2.76-1.91-4.75-1.91-5.97c0-0.65,0.17-1.46,0.51-2.44h0.38
			c0.21-0.57,0.51-1.6,0.89-3.11l-0.38-0.98v-0.49c0-0.41,0.27-1,0.8-1.77c0.53-0.77,0.82-1.36,0.86-1.77
			c2.55-1.71,4.08-4.22,4.58-7.56c0.89-0.57,1.59-1.18,2.1-1.83c1.53-0.49,2.63-0.89,3.31-1.22h0.51c0.93-1.06,2-1.95,3.18-2.68
			l0.51-0.98l4.2-1.34l3.69,0.49l1.4,0.85h1.78l1.91-1.71h1.78l2.42,0.85l1.85-0.49l1.02,0.49l0.38,0.85l3.31-0.37l1.4-0.98
			l0.89,0.49l1.4-0.49C711.95,119.52,712.25,120.13,712.46,120.98z M698,122.81l-2.8-0.98c-1.7,0.45-3.23,0.61-4.58,0.49l-3.31,1.34
			l-1.78,1.71c-0.13,0.65-0.88,2.6-2.26,5.85c-1.38,3.25-2.2,4.96-2.45,5.12l-0.25,1.34l-1.27,1.1l-0.25,0.85l0.25,0.85l-1.4,1.89
			v1.58l-0.76,0.73v1.22l-0.51,0.85v0.49l-1.34,0.49v1.71l0.38,0.49l1.97,0.85c1.02-0.32,2.55-1.22,4.58-2.68h0.51l1.4-0.85
			c0.47-0.65,1.23-1.54,2.29-2.68v-0.37l0.89-0.49c0.93-1.62,2.33-4,4.2-7.13v-0.49l1.4-1.34c0.13-1.34,0.68-2.8,1.66-4.39
			c-0.08-0.28,0.04-1.06,0.38-2.32l1.02-0.37v-0.49l-0.25-0.49c0.25-0.57,0.72-1.42,1.4-2.56h0.38L698,122.81z"/>
		<path d="M765.82,143.22c-0.47,0.61-1.41,1.28-2.83,2.01c-1.42,0.73-2.22,1.24-2.39,1.52v0.49c-0.55,0.41-1.32,0.98-2.29,1.71
			l-0.89,1.83l-2.29,1.71l-0.51,0.98c-1.49,0.98-3.88,1.34-7.2,1.1c-1.95-0.53-3.69-1.22-5.22-2.07l-0.51-1.95
			c0.13-1.79,0.68-3.86,1.66-6.22c-2.33,0.61-4.05,1.58-5.16,2.93c-1.87,2.19-2.91,3.37-3.12,3.53l0.25,0.37
			c-0.09,0.16-0.21,0.39-0.38,0.67c-0.17,0.28-0.3,0.51-0.38,0.67h-1.78c-1.27,1.06-2.84,1.67-4.71,1.83
			c-3.86-0.12-7.41-1.58-10.63-4.39c-0.38-1.58-0.93-3.66-1.66-6.22c0-2.8,0.68-5.22,2.04-7.25v-0.37c2.59-3.21,3.69-5.89,3.31-8.04
			l-1.02-0.49l-0.38,0.49h-1.02l-0.89,0.85l-1.4,0.49l-2.29-0.49l0.63-3.17l1.65-1.22c1.35-0.32,2.92-0.49,4.7-0.49l1.4-0.85h0.95
			l0.51-0.85l1.78-0.49l0.89-2.19l0.51-0.49l1.9,0.85l2.29-0.85l2.79,0.85c0.17,0.89,0.3,2.23,0.38,4.02l-0.38,0.85l-2.25,0.49
			c-0.3,0.37-0.64,1.1-1.02,2.19h-0.38c-0.42,2.36-1.06,3.86-1.91,4.51v0.37c-0.42,0.37-1.06,1.14-1.91,2.32l-0.38,3.53l-0.51,0.37
			c-0.76,1.18-1.06,2.54-0.89,4.08l0.38,0.49c-0.17,0.61,0.22,1.8,1.18,3.56c0.96,1.77,1.75,2.94,2.39,3.5h1.66
			c0.25-0.16,2.12-1.91,5.6-5.24l1.4-0.49l0.25-0.85c0.68-0.16,1.19-0.49,1.53-0.98l0.89-0.37v-0.49c0.34-0.65,0.81-1.4,1.4-2.25
			c0.93-0.32,1.89-0.87,2.87-1.65c1.44-1.14,2.27-1.77,2.48-1.89c0.21-0.85,0.51-1.46,0.89-1.83h0.51c0.55-1.79,1.59-4.35,3.12-7.68
			c0.42-0.61,1.02-1.58,1.78-2.92c-0.13-0.85,0.04-1.75,0.51-2.68l3.7-1.58l3.19,1.1c0.51,0.89,0.68,1.95,0.51,3.17l-0.5,0.85v1.34
			h-0.38l-1.41,2.68h-0.51c-0.6,0.41-1.07,1.71-1.41,3.9h-0.38c-0.3,1.1-0.77,2.32-1.41,3.66v2.19l-1.41,3.11l-0.51,0.49l-1.41,3.53
			v1.34c0,0.2,0.02,0.53,0.06,0.98c0.04,0.45,0.06,0.77,0.06,0.98c1.61-0.98,2.67-1.79,3.18-2.44l2.8-0.37l0.38-0.49v-0.85
			c0.85-0.77,2.08-1.95,3.69-3.53c1.19-0.45,2-0.63,2.42-0.55l1.4,1.89V143.22z"/>
		<path d="M799.89,124.03l-0.9,1.1l-1.42,0.37l-0.9,0.98c-0.76,3.66-1.14,5.44-1.14,5.36l-1.53,2.19c0.17,0.41-0.08,1.4-0.76,2.99
			c-0.72,1.79-1.08,3.09-1.08,3.9c0,0.24,0.02,0.49,0.06,0.73h0.38v1.34c-0.08,0.08-0.55,0.65-1.4,1.71l-0.38,2.19l0.38,1.34
			l-1.27,1.83l-0.51,4.88c-1.19,1.71-2.37,3.39-3.56,5.06c-1.31,2.03-2.16,3.88-2.54,5.55l-1.46,0.49l-0.51,2.25h-1.4l0.38,3.17
			l-2.67,0.37v4.02h-1.02l-1.78,1.58l-1.91,0.61v1.83l-1.78,0.85l-0.51,0.97h-0.51c-1.1,0.53-1.87,1.1-2.29,1.71l-4.2,1.34
			l-8.08-1.1l-4.71-3.41c-1.61-0.45-2.84-0.61-3.69-0.49l-1.02-0.85c-0.25-1.71-0.38-2.6-0.38-2.68c0-0.73,0.21-2.11,0.64-4.14
			l-0.64-0.73l0.38-0.49l-0.89-1.71l0.51-0.98v-0.85l1.4-0.37l0.89-1.04v-1.71c1.19,0.12,2.42-0.04,3.69-0.49l0.51-0.85
			c2.34,0.24,5.24-0.08,8.72-0.98l2.42,3.66l-2.42,1.77c-2.97-1.06-5.03-1.52-6.18-1.4l-1.66,1.4l-1.4,0.49
			c-0.34,0.65-0.64,1.1-0.89,1.34c-0.17,0.69-0.17,1.71,0,3.05c-0.51,0.89-0.68,1.95-0.51,3.17l0.89,0.37v0.49l1.91,0.49v0.37
			l0.51,0.49c0.76,0.08,2.54,0.45,5.34,1.1c2.54,0.61,4.14,0.89,4.77,0.85l2.67-1.46l1.53-2.19c-0.34-3.62-0.08-5.97,0.76-7.07
			v-1.34c0.68-0.2,1.15-0.49,1.4-0.85h0.51l0.51-1.04h0.89l0.51-0.37c0.89-1.67,1.19-3.29,0.89-4.88l-0.51-0.98l2.29-1.83l0.38-3.17
			l1.53-0.85l1.66-4.02l-0.25-2.93c0.55-0.73,1.44-2.36,2.67-4.88l-0.38-0.49v-0.91l0.38-0.49v-0.85h1.47l0.51-0.98
			c-0.08-0.49-0.02-1.34,0.19-2.56c0.21-1.38,0.32-2.27,0.32-2.68l2.29-0.49v-1.83l1.02-0.85v-2.68h0.38v-2.19h-2.8
			c-1.53,0.37-2.48,0.65-2.86,0.85l-0.38,0.49c-0.98,0.69-2.08,1.3-3.31,1.83l-0.38,0.85c-0.93,0.24-2.33,0.69-4.2,1.34l-0.89-0.49
			v-1.34c0-0.89,0.3-1.62,0.89-2.19h1.4l0.89-0.85h2.29c2.08-1.1,3.48-2.27,4.2-3.53c1.87-0.93,3.76-1.26,5.67-0.98l1.78-0.85h1.02
			l1.78-1.34l3.31-0.49c0.55,0.81,1.49,1.87,2.8,3.17v0.85H799L799.89,124.03z M808.04,93.01l-0.89,0.98l-3.31,1.34l-0.89,1.71
			c0.3,1.5,0,3.01-0.89,4.51h-0.89c-0.81,0.98-1.91,2.44-3.31,4.39l-0.89,0.49h-0.51l-0.64,0.98l-1.15-0.12
			c-0.76-1.3-1.15-2.56-1.15-3.78c0-0.93,0.47-2.97,1.4-6.09c0.85-2.93,1.23-4.67,1.15-5.24l2.29-2.19l0.38-1.4l1.78-1.46l3.31-0.73
			c1.1,0.41,2.38,1.61,3.82,3.6C807.57,90.65,807.7,91.67,808.04,93.01z"/>
	</g>
	<g>
		<g>
			<path d="M875.31,107.64c7.66,0,7.67-11.91,0-11.91C867.65,95.73,867.64,107.64,875.31,107.64L875.31,107.64z"/>
		</g>
	</g>
	<g>
		<g>
			<path d="M875.54,122.23c7.66,0,7.67-11.91,0-11.91C867.87,110.33,867.86,122.23,875.54,122.23L875.54,122.23z"/>
		</g>
	</g>
	<g>
		<g>
			<path d="M874.62,139.44c7.66,0,7.67-11.91,0-11.91C866.96,127.53,866.94,139.44,874.62,139.44L874.62,139.44z"/>
		</g>
	</g>
	<g>
		<g>
			<path d="M857.96,122.77c7.66,0,7.67-11.91,0-11.91C850.29,110.87,850.28,122.77,857.96,122.77L857.96,122.77z"/>
		</g>
	</g>
	<g>
		<g>
			<path d="M894.35,122.08c7.66,0,7.67-11.91,0-11.91C886.69,110.17,886.68,122.08,894.35,122.08L894.35,122.08z"/>
		</g>
	</g>
	<g>
		<g>
			<path d="M960.54,122.47c7.66,0,7.67-11.91,0-11.91C952.88,110.56,952.87,122.47,960.54,122.47L960.54,122.47z"/>
		</g>
	</g>
	<g>
		<g>
			<path d="M983.17,122.86c7.66,0,7.67-11.91,0-11.91C975.5,110.95,975.49,122.86,983.17,122.86L983.17,122.86z"/>
		</g>
	</g>
</g>
</svg>
