<?xml version="1.0" encoding="utf-8"?>
<!-- Generator: Adobe Illustrator 24.1.1, SVG Export Plug-In . SVG Version: 6.00 Build 0)  -->
<svg version="1.1" id="Layer_1" xmlns="http://www.w3.org/2000/svg" xmlns:xlink="http://www.w3.org/1999/xlink" x="0px" y="0px"
	 viewBox="0 0 1091 218" style="enable-background:new 0 0 1091 218;" xml:space="preserve">
<style type="text/css">
	.st0{stroke:#231F20;stroke-linecap:round;stroke-miterlimit:10;}
</style>
<line class="st0" x1="49.1" y1="170.51" x2="1049.48" y2="170.51"/>
<g>
	<g>
		<path d="M686.84,88.33c-15.82,11.1-25.8,28.33-27.01,47.7c-0.6,9.68,1.28,18.39,9.48,24.38c7.84,5.72,18.38,6.57,27.42,3.4
			c8.85-3.1,17.09-9.28,23.86-15.68c6.99-6.61,12.82-14.95,15.49-24.26c5.19-18.06-4.72-40.87-25.68-41.31
			c-9.22-0.19-17.57,5.7-20.36,14.51c-2.81,8.9,1.18,18.45,7.71,24.69c14.31,13.64,38.5,6.87,53.96-1.2
			c8.74-4.57,16.67-10.56,24.23-16.85c7.06-5.87,16.69-12.42,20.93-20.75c4.55-8.93-0.64-19.31-10.69-20.36
			c-9.24-0.96-17.61,5.65-19.11,14.75c-1.67,10.16,5.28,18.62,14.53,21.73c4.1,1.38,8.48,1.88,12.54,3.38
			c4.78,1.77,6.18,4.74,6.59,9.8c0.83,10.34-4.3,22.19-10.94,29.98c-6.89,8.09-16.11,12.89-26.85,12.08
			c1.93,2.53,3.86,5.06,5.79,7.6c0.07-0.68,0.2-1.36,0.37-2.02c0.54-1.78-0.43-1.12-2.92,1.97c-1.54-0.2-3.08-0.4-4.62-0.6
			c-3.31-2.72-2.85-5.04,1.39-6.94c1.93,2.53,3.86,5.06,5.79,7.6c0.68-2.91,3.57-3.01,6.26-2.91c5.73,0.21,11.62,1.65,17.28,2.56
			c11.12,1.8,22.26,3.59,33.52,4.15c7.72,0.38,7.7-11.62,0-12c-14.67-0.73-29.03-3.73-43.54-5.77c-9.94-1.4-22.27-1.29-25.1,10.77
			c-0.9,3.82,1.78,7.53,5.79,7.6c6.5,0.11,10.49-7.02,7.37-12.68c-1.47-2.65-4.59-4.21-7.6-3.29c-3.73,1.14-4.99,4.89-5.56,8.37
			c-0.66,4.03,1.6,7.28,5.79,7.6c14.18,1.07,27.36-5.86,36.24-16.68c9.3-11.33,15.73-27.58,12.93-42.33
			c-1.29-6.79-4.79-11.99-11.11-14.95c-5.52-2.59-11.82-2.76-17.32-5.24c-4.88-2.2-7.43-10.23-0.99-12.35
			c3.58-1.18,4.69,1.18,2.64,4.08c-2.2,3.13-5.53,5.59-8.37,8.13C765.86,96.9,754.1,107,740.2,112.8
			c-11.72,4.89-31.45,9.37-38.05-5.21c-2.52-5.57,0.28-12.36,6.81-13.01c7.23-0.72,13.72,5.36,15.65,11.87
			c4.29,14.44-5.92,28.23-16.66,36.74c-6.2,4.92-13.27,10.26-21.53,10.45c-8.41,0.19-14.53-4.69-14.69-13.14
			c-0.32-16.48,7.66-32.34,21.16-41.81C699.17,94.29,693.18,83.88,686.84,88.33L686.84,88.33z"/>
	</g>
</g>
<g>
	<g>
		<path d="M641.12,40.8c-13.29,32.21-40.12,63.1-30.44,100.29c3.26,12.52,12.18,28.28,27.23,26.97
			c15.64-1.37,26.36-16.77,32.06-29.87c3.52-8.08,5.41-16.89,9.18-24.82c1.82-3.84,4.27-7.09,7.2-10.14
			c1.08-1.12,2.17-2.25,3.35-3.26c0.36-0.31,0.88-0.63,1.18-0.98c0.26-0.18,0.53-0.35,0.79-0.53c1.9-0.86,0.92-1.26-2.92-1.21
			c2.11,2.3,6.39,2.34,8.49,0c4.79-5.35,11.2-7.73,17.85-9.96c7.29-2.44,4.16-14.03-3.19-11.57c-8.54,2.86-17,6.18-23.15,13.04
			c2.83,0,5.66,0,8.49,0c-9.1-9.93-24.2,10.4-27.78,17.2c-6.94,13.16-8.42,28.57-18.02,40.47c-3.51,4.35-10.3,10.84-16.52,9.61
			c-5.57-1.1-9.04-7.94-10.92-12.68c-6.2-15.6-2.94-32.5,3.21-47.54c7.3-17.84,18.12-33.99,25.48-51.83
			C655.63,36.85,644.03,33.75,641.12,40.8L641.12,40.8z"/>
	</g>
</g>
<g>
	<g>
		<path d="M636.93,52.79c1.33,1.39,2.41,3.06,3.79,4.38c2.79,2.67,7.25,2.69,9.65-0.54c1.63-2.19,1.39-4.73,1.45-7.3
			c0.01-0.31,0.25-1.34,0.01-0.21c0.11-0.49,0.21-0.98,0.35-1.47c0.34-1.2,0.69-1.96,1.26-3.05c1.51-2.87,0.73-6.52-2.15-8.21
			c-2.71-1.58-6.7-0.73-8.21,2.15c-1.26,2.4-2.4,4.97-2.86,7.66c-0.2,1.18-0.37,2.39-0.41,3.59c-0.01,0.39,0.01,0.79,0.01,1.18
			c0.01,0.55-0.38,1.87,0.06,0.43c0.51-0.88,1.03-1.77,1.54-2.65c-0.07,0.06-0.13,0.13-0.2,0.19c1.41-0.59,2.83-1.17,4.24-1.76
			c-0.05,0-0.1,0-0.15,0c1.01,0.27,2.02,0.55,3.03,0.82c1.32,0.68,0.89,0.86,0.36,0.11c-0.29-0.4-0.62-0.78-0.93-1.16
			c-0.75-0.92-1.54-1.8-2.36-2.65C640.05,38.73,631.57,47.22,636.93,52.79L636.93,52.79z"/>
	</g>
</g>
<g>
	<g>
		<path d="M164.87,82.81c-7.41-8.4-15.97-16.09-26.44-20.39c-10.35-4.25-21.73-4-32.22-0.33c-10.19,3.57-19.45,9.86-25.78,18.68
			c-3.24,4.52-5.59,9.78-6.56,15.27c-0.51,2.9-0.81,5.86-0.5,8.8c0.09,0.9,1.78,6.46,1.39,6.91c3.14,2.42,6.28,4.85,9.42,7.27
			c0.2-0.19,0.4-0.39,0.59-0.58c-2.83-2.83-5.66-5.66-8.49-8.49c-0.46,0.64-0.97,1.24-1.53,1.79c3.34,0.88,6.69,1.77,10.03,2.65
			c-1.08,2.72-0.93,3.33,0.46,1.84c-3.34-1.95-6.69-3.89-10.03-5.84c-2.51,13.18-2.47,27.51,5.94,38.7
			c9.07,12.09,24.85,17.48,39.61,16.09c32.78-3.09,50.33-34.93,72.39-55.2c13.01-11.95,30.1-15.2,46.32-20.74
			c7.24-2.48,4.25-13.88-3.19-11.57c-2.63,0.82-5.26,1.45-7.98,1.91c1.06,3.86,2.13,7.71,3.19,11.57c2.64-0.74,5.3-1.32,7.98-1.91
			c-1.06-3.86-2.13-7.71-3.19-11.57c-6.41,2.47-13.24,2.77-19.89,4.23c-6.52,1.43-5.2,12.28,1.6,11.79c4.17-0.3,8.3-0.77,12.45-1.33
			c6.71-0.92,5.09-12.05-1.6-11.79c-26.24,1.02-58.97,15.46-62.7,44.73c-1.68,13.19,5.06,25.13,19.06,26.41
			c16.74,1.54,32.5-8.03,43.92-19.42c13.14-13.1,23.35-30.94,21.16-50.05c-0.71-6.21-10.12-8.74-11.79-1.6
			c-0.7,3-0.99,5.93-0.88,9.01c0.22,6.4,10.79,8.58,11.79,1.6c0.43-3,0.71-5.98,0.88-9.01c0.35-6.04-8.33-8.03-11.18-3.03
			c-3.2,5.61-9.37,19.75,2.53,20.18c8.59,0.31,8.69-11.23,8.66-17.15c-0.03-5.65-8.49-8.57-11.18-3.03
			c-4.06,8.36-7.53,17.03-9.76,26.06c-1.96,7.91-2.44,15.9-3.37,23.96c-0.7,6.11-1.5,12.84,1.72,18.44c3.67,6.38,11,8.35,17.91,8.66
			c15.23,0.69,29.64-10.68,39.76-21.03c10.02-10.25,17.52-22.61,22.74-35.92c6.09-15.54,8.62-32.49,7.83-49.14
			c-0.32-6.7-9.79-8.22-11.79-1.6c-1.14,3.78-0.98,7.35,0.43,11.03c2.5,6.51,10.96,5.17,11.79-1.6c0.39-3.2-0.13-6.28-0.65-9.44
			c-0.76-4.6-7.09-5.58-10.03-2.65c-5.57,5.56-9.23,12.01-9.67,19.97c-0.21,3.86,4.01,6.86,7.6,5.79c9.67-2.9,9.97-11.61,12.1-19.92
			c1.38-5.37-6.08-10.76-10.03-5.84c-3.28,4.09-6.9,7.93-8.99,12.79c-2.74,6.36,3.93,11.58,9.42,7.27c4.67-3.67,8.25-8.37,9.6-14.22
			c1.22-5.27-6.09-10.93-10.03-5.84c-21.47,27.76-41.17,64.5-27.2,100.04c2.69,6.84,6.45,14.17,13.92,16.66
			c8.09,2.69,15.84-1.87,21.15-7.76c11.71-12.99,15.82-30.59,26.46-44.23c6.33-8.12,15.17-13.44,24.37-17.74
			c9.02-4.22,20.39-5.93,27.87-12.76c2.66-2.43,2.23-7.83-1.21-9.42c-7.6-3.51-16.1-0.41-23.58,2.34
			c-7.48,2.74-14.27,6.69-20.44,11.71c-11.5,9.36-21.24,23.26-21.87,38.46c-0.58,13.96,6.9,28,19.58,34.28
			c15.95,7.9,35.89-1.41,46.71-13.86c3.73-4.29,7.47-8.89,10.8-13.5c3.06-4.24,5.1-9.42,7.07-14.25c3.99-9.82,6.37-20.24,6.09-30.87
			c-0.15-5.44-8.66-8.82-11.18-3.03c-1.24,2.85-2.57,5.59-3.04,8.69c-0.99,6.46,7.12,10.74,10.97,4.62
			c2.06-3.27,2.81-6.49,3.26-10.28c0.86-7.21-9.56-7.39-11.79-1.6c-5.39,14-8.2,28.76-12.52,43.08c-3.18,10.54-6.27,23.4,2.35,32.31
			c9.65,9.98,22.18,3.31,30.45-4.7c10.08-9.76,19.06-21.09,26.66-32.85c9.42-14.57,16.59-30.47,22.97-46.57
			c2.53-6.39-7.71-10.45-10.97-4.62c-2.15,3.84-4.27,7.61-5.32,11.92c-1.67,6.8,7.16,10.15,10.97,4.62
			c2.51-3.64,3.89-7.77,5.32-11.92c2.2-6.38-7.94-10.73-10.97-4.62c-8.19,16.52-17.79,32.59-22.4,50.6
			c-3.21,12.55-5.19,29.04,4.9,39.13c11.71,11.7,26.39,3.93,36.05-5.99c11.75-12.07,21.64-26.53,29.73-41.22
			c11.28-20.48,19.36-42.53,26.69-64.67c2.22-6.71-7.37-10.1-10.97-4.62c-1.8,2.74-2.97,5.7-3.81,8.86
			c-1.69,6.39,7.83,10.86,10.97,4.62c1.45-2.88,2.64-5.86,3.81-8.86c2.38-6.11-5.96-9.3-10.03-5.84c-2.63,2.24-5.84,3.65-7.81,6.65
			c-2.32,3.54-2.18,7.69,0.15,11.2c1.77,2.68,5.3,3.9,8.21,2.15c5.21-3.13,8.14-8.35,9.49-14.16c1.09-4.7-4.27-9.95-8.81-6.78
			c-3.47,2.42-10.61,6.1-8.8,11.53c0.78,2.34,3.1,4.63,5.79,4.4c4.11-0.35,9.44-3.98,11.22-7.73c2.32-4.87-2.84-12-8.21-8.21
			c-13.97,9.84-25.32,22.74-33.37,37.82c-8.07,15.13-14.95,33.65-8.8,50.68c4.97,13.76,19.07,24.26,34.06,21.49
			c15.36-2.84,21.61-17.87,27.14-30.57c6.9-15.84,20.06-28.76,38.26-28.94c-0.53-3.93-1.06-7.86-1.6-11.79
			c-27.21,6.49-43.87,27.72-55.31,51.82c-4.54,9.57-4.66,24.27,7.19,28.58c6.09,2.21,14.62-3.85,19.45-7.26
			c5.73-4.05,11.65-8.76,16.51-13.84c5.31-5.55,9.52-13.47,12.95-20.28c4.03-8.01,6.68-16.35,7.03-25.35
			c0.26-6.73-10.21-8.19-11.79-1.6c-0.66,2.77-0.96,5.53-1.04,8.37c-0.18,6.6,10.7,8.39,11.79,1.6c0.45-2.78,0.76-5.57,1.04-8.37
			c0.64-6.48-8.13-7.37-11.18-3.03c-3.56,5.06-11.12,18.59,0.42,20.03c8.89,1.1,10.02-10.8,10.76-17c0.78-6.47-8.19-7.36-11.18-3.03
			c-5.44,7.88-9.64,16.62-12.1,25.89c-2.15,8.06-4.04,18.11-2.3,26.4c1.47,7.02,6.62,12.59,13.21,15.19
			c7.36,2.9,14.2,1.22,21.13-1.9c26.63-11.97,42.74-38.6,50-65.91c4.22-15.88,5.85-32.52,5.22-48.92c-0.29-7.7-12.3-7.74-12,0
			c0.9,23.54-2.75,48.12-13.67,69.21c-5.38,10.4-12.55,19.94-21.87,27.13c-6.65,5.13-21.74,15.85-28.84,6
			c-1.92-2.66-1.7-5.7-1.56-8.82c0.2-4.59,0.75-9.08,1.84-13.55c2.17-8.96,6.08-17.1,11.31-24.66c-3.73-1.01-7.45-2.02-11.18-3.03
			c-0.15,1.21-1.84,5.32-1.5,6.9c2.8,1.1,5.59,2.19,8.39,3.29c0.05-0.38,0.18-0.72,0.38-1.03c0.49-0.51,0.8-1.44,1.18-2.06
			c0.85-1.39,1.79-2.72,2.73-4.06c-3.73-1.01-7.45-2.02-11.18-3.03c-0.17,1.74-0.34,3.46-0.61,5.18c3.93,0.53,7.86,1.06,11.79,1.6
			c0.05-1.83,0.19-3.4,0.61-5.18c-3.93-0.53-7.86-1.06-11.79-1.6c-0.31,8.02-3.18,15.35-7,22.33c-3.24,5.92-6.86,12.47-11.9,16.99
			c-5.16,4.63-10.29,9.31-16.33,12.8c-1.67,0.97-3.38,1.81-5.16,2.57c-1.12,0.27-1.1,0.45,0.06,0.53c-0.33-0.22-0.61-0.49-0.85-0.8
			c-0.48-2-1.18-3.32-0.92-5.59c0.61-5.21,4-10.66,6.44-15.2c2.97-5.52,6.42-10.81,10.55-15.54c8.69-9.96,19.56-17.12,32.47-20.2
			c6.6-1.57,5.15-11.85-1.6-11.79c-13.68,0.14-26.58,6.04-36.15,15.75c-9.34,9.49-12.41,21.48-18.7,32.77
			c-2.84,5.08-7.02,10.19-13.08,11.27c-5.81,1.04-11.58-1.87-15.52-6c-10.97-11.48-5.8-29.75,0.11-42.35
			c7.34-15.64,17.9-29.55,32.1-39.56c-2.74-2.74-5.47-5.47-8.21-8.21c-0.04,0.08-0.42,0.58-0.94,0.95
			c-1.72,1.24-3.55,1.14,0.07,0.83c1.93,1.47,3.86,2.94,5.79,4.4c-0.01-0.02-0.02-0.05-0.02-0.07c-0.2,1.54-0.4,3.08-0.6,4.62
			c-1.14,1.72-0.35,0.37,0.1,0.2c1.29-0.49,2.71-1.95,3.82-2.73c-2.94-2.26-5.88-4.52-8.81-6.78c-0.63,2.72-1.44,5.47-3.97,6.99
			c2.74,0.72,5.47,1.44,8.21,2.15c0.38,0.58-1.31,1.61-0.09,1.08c0.38-0.17,1.43-1.08,1.68-1.26c1.41-1.03,2.86-1.98,4.19-3.12
			c-3.34-1.95-6.69-3.89-10.03-5.84c-0.79,2.04-1.61,4.04-2.6,6c3.66,1.54,7.31,3.08,10.97,4.62c0.59-2.24,1.32-4.05,2.6-6
			c-3.66-1.54-7.31-3.08-10.97-4.62c-10.73,32.44-23.46,64.18-45.08,91.04c-4.62,5.74-15.37,21.5-24.43,17.61
			c-10.2-4.38-6.89-20.81-4.86-28.95c4.31-17.24,13.51-32.51,21.33-48.29c-3.66-1.54-7.31-3.08-10.97-4.62
			c-1.11,3.22-2.16,6.22-4.12,9.05c3.66,1.54,7.31,3.08,10.97,4.62c0.82-3.32,2.46-6.09,4.12-9.05c-3.66-1.54-7.31-3.08-10.97-4.62
			c-5.89,14.86-12.65,29.45-21.26,42.94c-7.69,12.05-17.11,24.85-28.3,33.92c-4.06,3.29-9.37,5.91-11.97-0.49
			c-2.04-5,0.24-11.44,1.68-16.29c4.43-14.96,7.48-30.39,13.1-44.98c-3.93-0.53-7.86-1.06-11.79-1.6c-0.19,1.64-0.76,2.85-1.62,4.23
			c3.66,1.54,7.31,3.08,10.97,4.62c0.32-2.1,0.99-3.88,1.83-5.82c-3.73-1.01-7.45-2.02-11.18-3.03
			c0.51,19.16-8.45,38.04-21.64,51.64c-10.68,11.01-29.51,17.65-40.01,2.94c-8.53-11.96-4.02-26.41,4.36-36.96
			c4.59-5.77,10.28-10.62,16.67-14.28c3.38-1.94,6.91-3.51,10.63-4.67c2.61-0.81,9-3.79,11.56-2.61c-0.4-3.14-0.81-6.28-1.21-9.42
			c-2.65,2.42-6.15,3.2-9.45,4.35c-3.79,1.32-7.52,2.82-11.21,4.4c-7.41,3.18-14.61,6.83-21.05,11.71
			c-12.61,9.54-19.03,22.96-25.99,36.72c-3.2,6.33-6.6,12.88-11.49,18.1c-1.84,1.97-4.77,4.99-7.79,4.49
			c-2.6-0.43-4.16-3.32-5.27-5.43c-7.07-13.4-6.99-29.49-3.07-43.78c4.8-17.53,14.68-33.51,25.72-47.79
			c-3.34-1.95-6.69-3.89-10.03-5.84c-0.92,3.98-3.38,6.47-6.51,8.93c3.14,2.42,6.28,4.85,9.42,7.27c1.71-3.97,4.44-7.02,7.12-10.36
			c-3.34-1.95-6.69-3.89-10.03-5.84c-0.71,2.76-0.52,10.57-3.72,11.53c2.53,1.93,5.06,3.86,7.6,5.79c0.26-4.66,2.96-8.3,6.15-11.48
			c-3.34-0.88-6.69-1.77-10.03-2.65c0.35,2.15,0.48,4.08,0.22,6.25c3.93-0.53,7.86-1.06,11.79-1.6c-0.69-1.81-1-2.77-0.43-4.65
			c-3.93-0.53-7.86-1.06-11.79-1.6c1.13,23.69-5,47.55-18.91,66.94c-7.03,9.8-16.25,18.04-26.79,23.89
			c-5.01,2.78-12.81,5.18-18.36,2.17c-3.84-2.08-2.57-8-2.19-11.56c0.76-7.19,1.19-14.39,2.81-21.46c1.98-8.67,5.1-16.97,8.97-24.96
			c-3.73-1.01-7.45-2.02-11.18-3.03c0.01,1.98-1.03,5.6-0.52,7.31c0.07,0.22,8.03,2.4,8.65,1.81c0.34-0.33,0.6-1.56,0.81-2.02
			c0.65-1.4,1.47-2.73,2.24-4.08c-3.73-1.01-7.45-2.02-11.18-3.03c-0.11,1.94-0.18,3.9-0.46,5.82c3.93,0.53,7.86,1.06,11.79,1.6
			c-0.07-2.1-0.03-3.76,0.46-5.82c-3.93-0.53-7.86-1.06-11.79-1.6c1.95,16.98-7.41,31.97-19.35,43.23
			c-6.22,5.86-13.56,10.91-21.89,13.18c-5.1,1.39-13.8,3.04-17.42-2.03c-2.91-4.07-1.94-10.15-0.54-14.59
			c2.04-6.49,6.51-12.02,11.74-16.26c10.54-8.54,24.65-12.68,38.04-13.21c-0.53-3.93-1.06-7.86-1.6-11.79
			c-3.07,0.42-6.16,0.68-9.26,0.9c0.53,3.93,1.06,7.86,1.6,11.79c6.65-1.46,13.49-1.77,19.89-4.23c7.11-2.74,4.48-13.26-3.19-11.57
			c-2.67,0.59-5.34,1.17-7.98,1.91c-7.57,2.12-4.29,12.85,3.19,11.57c2.72-0.46,5.35-1.09,7.98-1.91
			c-1.06-3.86-2.13-7.71-3.19-11.57c-12.48,4.27-25.54,7.19-37.26,13.41c-12.54,6.65-22.08,17.82-31.45,28.22
			c-16.64,18.48-40.64,45.3-68.25,29.95c-13.34-7.42-15.16-21.91-12.53-35.68c1.15-6.05-5.35-9.73-10.03-5.84
			c-3.25,2.7-4.26,5.74-3.54,9.84c0.78,4.47,7.13,5.74,10.03,2.65c0.56-0.55,1.07-1.15,1.53-1.79c4.65-5.97-2.58-13.77-8.49-8.49
			c-1.02,0.91-1.73,1.86-2.47,3.01c-3.65,5.65,4.92,12.46,9.42,7.27c3.23-3.73,3.72-7.61,2.86-12.38c-0.92-5.09-1.1-9.49,0.89-14.46
			c3.47-8.63,11.4-15.07,19.74-18.71c8.36-3.66,17.73-4.74,26.39-1.53c9.35,3.47,16.79,10.79,23.25,18.13
			C161.5,97.1,169.96,88.58,164.87,82.81L164.87,82.81z"/>
	</g>
</g>
<g>
	<g>
		<path d="M870.8,80.04c0.14,25.3-0.17,50.6-0.91,75.89c-0.23,7.66,11.68,7.66,11.91,0c0.75-25.29,1.05-50.59,0.91-75.89
			C882.66,72.38,870.76,72.36,870.8,80.04L870.8,80.04z"/>
	</g>
</g>
<g>
	<g>
		<path d="M840.5,122.84c23.86-0.12,47.72-0.25,71.58-0.37c7.66-0.04,7.68-11.95,0-11.91c-23.86,0.12-47.72,0.25-71.58,0.37
			C832.84,110.97,832.82,122.88,840.5,122.84L840.5,122.84z"/>
	</g>
</g>
<g>
	<g>
		<path d="M939.5,122.9c21.79,0.79,43.58,0.71,65.36-0.22c7.63-0.33,7.67-12.24,0-11.91c-21.78,0.94-43.58,1.01-65.36,0.22
			C931.84,110.71,931.85,122.62,939.5,122.9L939.5,122.9z"/>
	</g>
</g>
<g>
	<g>
		<path d="M604.42,80.64c4.06,0.26,8.1,0.64,12.06,1.63c3.05,0.77,3.78,1.11,5.96,2.3c0.36,0.2,0.69,0.45,1.04,0.68
			c1.02,0.69-0.98-0.87,0.11,0.1c0.53,0.47,1.04,0.97,1.57,1.46c1.24,1.16,2.46,2.37,3.92,3.27c4.17,2.55,9.23,2.74,13.97,2.34
			c11.33-0.95,22.54-3.91,33.54-6.67c7.43-1.87,4.28-13.35-3.17-11.48c-10.24,2.58-20.87,5.67-31.47,6.33
			c-1.33,0.08-2.65,0.09-3.99,0.05c-0.3-0.01-1.88-0.28-0.33,0.01c-0.41-0.08-0.81-0.16-1.21-0.25c-1.92-0.47,0.36,0.41-0.95-0.36
			c-1.68-0.98,0.26,0.4-0.59-0.4c-8.74-8.19-18.6-10.15-30.46-10.91C596.77,68.24,596.8,80.15,604.42,80.64L604.42,80.64z"/>
	</g>
</g>
</svg>
